<?xml version="1.0" encoding="UTF-8"?>
<svg id="SVGRoot" width="48px" height="48px" version="1.1" viewBox="0 0 48 48" xmlns="http://www.w3.org/2000/svg">
 <path d="m15 19-10 21 2 3h34l2-3-10-21h-18zm9.9492 2a3 3 0 0 1 0.050781 0 3 3 0 0 1 3 3 3 3 0 0 1-3 3 3 3 0 0 1-3-3 3 3 0 0 1 2.9492-3zm5.0508 7a5 5 0 0 1 5 5 5 5 0 0 1-5 5 5 5 0 0 1-5-5 5 5 0 0 1 5-5zm-11.053 6a3 3 0 0 1 0.001953 0 3 3 0 0 1 0.050781 0 3 3 0 0 1 3 3 3 3 0 0 1-3 3 3 3 0 0 1-3-3 3 3 0 0 1 2.9473-3z" style="fill:#0080ff"/>
 <path d="m30 4v8c0 3 13 26 13 28s-2 3-4 3h-15m-6-39v8c0 3-13 26-13 28s2 3 4 3h15" style="fill:none;stroke-width:2;stroke:#000000"/>
 <path d="m16 5h16" style="fill:none;stroke-linecap:round;stroke-width:2;stroke:#000000"/>
 <path d="m14 22h6" style="fill:none;stroke-width:2;stroke:#000000"/>
 <path d="m12 26h6" style="fill:none;stroke-width:2;stroke:#000000"/>
 <path d="m10 30h6" style="fill:none;stroke-width:2;stroke:#000000"/>
 <path d="m8 34h6" style="fill:none;stroke-width:2;stroke:#000000"/>
 <circle cx="23" cy="15" r="2" style="fill:#0080ff"/>
 <circle cx="26" cy="10" r="1" style="fill:#0080ff"/>
</svg>
