<?xml version="1.0" encoding="UTF-8"?>
<svg id="SVGRoot" width="96px" height="48px" version="1.1" viewBox="0 0 96 48" xmlns="http://www.w3.org/2000/svg">
 <g transform="translate(2.519 -.715)" style="fill:#000000" aria-label="ABORT">
  <path d="m15.238 36.87-1.156-5.848h-5.236l-1.156 5.848h-5.032l5.712-24.276h6.052l5.814 24.276zm-1.87-9.894-1.258-6.426q-0.238-1.19-0.374-2.312t-0.272-2.04q-0.068 0.884-0.272 2.006-0.17 1.122-0.408 2.278l-1.224 6.494z" style="fill:#ff002b"/>
  <path d="m22.31 12.594h6.29q7.344 0 7.344 5.984 0 2.142-0.85 3.57t-2.312 1.836v0.17q1.87 0.544 2.72 1.972 0.884 1.394 0.884 3.706 0 3.23-1.904 5.134-1.87 1.904-5.168 1.904h-7.004zm4.692 9.826h1.598q2.618 0 2.618-3.196 0-2.822-2.686-2.822h-1.53zm0 3.706v6.834h1.938q2.652 0 2.652-3.502 0-1.598-0.714-2.448-0.714-0.884-2.074-0.884z" style="fill:#ff002b"/>
  <path d="m56.072 24.698q0 3.876-0.918 6.698-0.918 2.788-2.788 4.318-1.87 1.496-4.726 1.496t-4.726-1.53-2.822-4.352q-0.918-2.822-0.918-6.664 0-6.12 2.142-9.282 2.176-3.162 6.324-3.162 4.284 0 6.358 3.366 2.074 3.332 2.074 9.112zm-12.036 0q0 8.398 3.604 8.398 1.768 0 2.652-2.04 0.918-2.074 0.918-6.358 0-8.432-3.57-8.432-3.604 0-3.604 8.432z" style="fill:#ff002b"/>
  <path d="m65.15 12.594q7.786 0 7.786 7.038 0 4.488-3.332 6.562l4.862 10.676h-5.168l-3.808-9.52h-1.258v9.52h-4.692v-24.276zm-0.034 3.944h-0.884v7.14h0.952q2.992 0 2.992-3.808 0-3.332-3.06-3.332z" style="fill:#ff002b"/>
  <path d="m83.952 36.87h-4.624v-20.23h-4.352v-4.046h13.328v4.046h-4.352z" style="fill:#ff002b"/>
 </g>
</svg>
