<?xml version="1.0" encoding="UTF-8"?>
<svg id="SVGRoot" width="48px" height="48px" version="1.1" viewBox="0 0 48 48" xmlns="http://www.w3.org/2000/svg">
 <path d="m16 8 2-2h4" style="fill:none;stroke-width:2;stroke:#000000"/>
 <path d="m24 6h5" style="fill:none;stroke-width:2;stroke:#0080ff"/>
 <path d="m31 6h5" style="fill:none;stroke-width:2;stroke:#0080ff"/>
 <path d="m24 18h-5" style="fill:none;stroke-width:2;stroke:#0080ff"/>
 <path d="m17 18h-5" style="fill:none;stroke-width:2;stroke:#0080ff"/>
 <path d="m30 24v5" style="fill:none;stroke-width:2;stroke:#0080ff"/>
 <path d="m30 31v5" style="fill:none;stroke-width:2;stroke:#0080ff"/>
 <path d="m30 18v4m-4-4h4l2-2" style="fill:none;stroke-width:2;stroke:#000000"/>
 <path d="m6 18h4m-1-3-3 3v4" style="fill:none;stroke-width:2;stroke:#000000"/>
 <path d="m11 13 3-3" style="fill:none;stroke-width:2;stroke:#0080ff"/>
 <path d="m42 6-3 3m-1-3h4v4" style="fill:none;stroke-width:2;stroke:#000000"/>
 <path d="m34 14 3-3" style="fill:none;stroke-width:2;stroke:#0080ff"/>
 <path d="m26 42h4l3-3m-3 3v-4" style="fill:none;stroke-width:2;stroke:#000000"/>
 <path d="m6 38v4h4" style="fill:none;stroke-width:2;stroke:#000000"/>
 <path d="m42 26v4l-2 2" style="fill:none;stroke-width:2;stroke:#000000"/>
 <path d="m6 24v5" style="fill:none;stroke-width:2;stroke:#0080ff"/>
 <path d="m6 31v5" style="fill:none;stroke-width:2;stroke:#0080ff"/>
 <path d="m42 12v5" style="fill:none;stroke-width:2;stroke:#0080ff"/>
 <path d="m42 19v5" style="fill:none;stroke-width:2;stroke:#0080ff"/>
 <path d="m24 42h-5" style="fill:none;stroke-width:2;stroke:#0080ff"/>
 <path d="m17 42h-5" style="fill:none;stroke-width:2;stroke:#0080ff"/>
 <path d="m35 37 3-3" style="fill:none;stroke-width:2;stroke:#0080ff"/>
</svg>
